<svg width="13" height="12" viewBox="0 0 13 12" fill="none" xmlns="http://www.w3.org/2000/svg">
<path id="rectangle.portrait.and.arrow.right" d="M1.78345 12H7.62769C8.80203 12 9.41114 11.3792 9.41114 10.182V7.68776H8.33558V10.1155C8.33558 10.6309 8.06669 10.9136 7.5344 10.9136H1.87125C1.33896 10.9136 1.07556 10.6309 1.07556 10.1155V1.88453C1.07556 1.36905 1.33896 1.08637 1.87125 1.08637H7.5344C8.06669 1.08637 8.33558 1.36905 8.33558 1.88453V4.31778H9.41114V1.81801C9.41114 0.626328 8.80203 0 7.62769 0H1.78345C0.609118 0 0 0.626328 0 1.81801V10.182C0 11.3792 0.609118 12 1.78345 12ZM5.31743 6.50716H10.8489L11.661 6.46836L11.2604 6.81201L10.4428 7.58799C10.344 7.67667 10.2892 7.80416 10.2892 7.93164C10.2892 8.18106 10.4757 8.39169 10.7282 8.39169C10.8599 8.39169 10.9586 8.33626 11.0519 8.24203L12.8299 6.38522C12.9561 6.25219 13 6.13025 13 5.99723C13 5.8642 12.9561 5.74226 12.8299 5.60924L11.0519 3.74688C10.9586 3.65266 10.8599 3.60277 10.7282 3.60277C10.4757 3.60277 10.2892 3.80231 10.2892 4.05727C10.2892 4.17921 10.344 4.31224 10.4428 4.40092L11.2604 5.18245L11.6665 5.5261L10.8489 5.48176H5.31743C5.04854 5.48176 4.81807 5.71455 4.81807 5.99723C4.81807 6.27991 5.04854 6.50716 5.31743 6.50716Z" fill="#FCFEFF"/>
</svg>
