<svg width="56" height="43" viewBox="0 0 56 43" fill="none" xmlns="http://www.w3.org/2000/svg">
<g id="ps-logo">
<path d="M3.09127 29.9195L19.1081 23.9796V29.5529L9.89293 32.6328C8.47758 33.1999 8.20063 33.6081 8.86903 34.5395C9.6736 35.2728 12.5259 35.1261 14.208 34.5395L19.1081 32.6328V37.4728C17.3528 37.8834 14.7687 37.9861 13.696 37.9861C8.32293 38.0108 2.26378 36.0605 1.26287 35.1261C-0.858049 33.1462 -0.346042 31.2395 3.09127 29.9195Z" fill="#0070CC"/>
<path d="M20.9365 0V39.8927L29.8591 42.7527V8.8732C30.0111 7.64563 30.2996 7.1518 31.5412 6.96656C32.4233 6.87688 33.6549 8.2062 33.5891 8.8732V23.9796C34.7752 24.6838 35.5824 24.9052 37.2459 25.0063C41.5378 24.6793 43.4472 23.58 43.755 15.9131C43.7857 10.508 42.4917 8.02842 37.2459 4.83993C31.2146 2.17013 27.604 1.20109 20.9365 0Z" fill="#0070CC"/>
<path d="M31.5412 33.5862V28.0862C34.3438 27.2344 36.0077 26.8472 39.3668 26.5463C43.4625 26.1794 47.7776 26.2529 54.2866 28.9662C56.2613 29.7894 57.6509 32.9262 51.8731 35.1261L31.5412 42.3127V36.8861L46.3148 31.7529C48.0818 31.1227 48.2164 30.2862 47.0461 29.9195C45.4372 29.3329 43.8282 29.4062 42.2923 29.9195L31.5412 33.5862Z" fill="#0070CC"/>
</g>
</svg>
