<svg width="100" height="24" viewBox="0 0 100 24" fill="none" xmlns="http://www.w3.org/2000/svg">
<g id="ps-symbols">
<path id="polygon" fill-rule="evenodd" clip-rule="evenodd" d="M12.8619 0.345717C12.944 0.427073 15.9593 5.4508 19.5491 11.4915C23.1593 17.5322 26.0721 22.5355 26.0311 22.6372C25.9901 22.7186 20.1439 22.7796 13.026 22.7796C5.92862 22.7796 0.0619786 22.7186 0.000440354 22.6372C-0.0405851 22.5355 2.79017 17.4508 6.31836 11.3288C9.82604 5.20673 12.7799 0.264361 12.8619 0.345717V0.345717ZM8.86194 12.8135C6.74913 16.6169 5.02606 19.7694 5.02606 19.8305C5.02606 19.8915 8.6363 19.9322 13.026 19.9322C17.4157 19.9322 21.026 19.9118 21.026 19.8915C21.026 19.8508 19.1593 16.6983 16.8619 12.8745L12.6773 5.9186L8.86194 12.8135Z" fill="#20B292"/>
<path id="circle" fill-rule="evenodd" clip-rule="evenodd" d="M37.8465 0C38.9747 0 40.308 0.142373 41.026 0.325424C41.7029 0.488136 42.8516 0.915254 43.5695 1.28136C44.2875 1.64746 45.4362 2.44068 46.1131 3.05085C46.79 3.66102 47.6926 4.71864 48.1234 5.38983C48.5746 6.06102 49.1695 7.34237 49.4772 8.23729C49.908 9.57966 50.0105 10.2508 50.0105 12C50.0105 13.7492 49.908 14.4203 49.4772 15.7627C49.1695 16.6576 48.5746 17.939 48.1234 18.6102C47.6926 19.2814 46.79 20.339 46.1131 20.9492C45.4362 21.5593 44.2875 22.3525 43.5695 22.7186C42.8516 23.0847 41.7029 23.5119 41.026 23.6746C40.3285 23.8576 38.9542 24 37.8875 24C36.4516 24 35.6106 23.878 34.4209 23.4915C33.5388 23.2271 32.267 22.6373 31.5901 22.2102C30.9132 21.7831 29.8465 20.8881 29.2311 20.2169C28.6158 19.5458 27.8158 18.4475 27.4465 17.7966C27.0773 17.1254 26.6055 15.8441 26.3594 14.9492C26.1337 14.0542 25.9491 12.7322 25.9491 12C25.9491 11.2678 26.1337 9.94576 26.3594 9.05085C26.6055 8.15593 27.0773 6.87458 27.4465 6.20339C27.8158 5.5322 28.6158 4.4339 29.2516 3.76271C29.8875 3.09153 30.8927 2.21695 31.508 1.83051C32.1029 1.44407 33.3337 0.874576 34.2568 0.569492C35.5901 0.122034 36.267 0 37.8465 0V0ZM33.5388 4.69831C33.026 5.00339 32.226 5.67458 31.7337 6.22373C31.2414 6.77288 30.626 7.68813 30.3388 8.23729C30.0722 8.80678 29.7234 9.84407 29.6004 10.5763C29.4157 11.5932 29.4157 12.2237 29.6004 13.322C29.7234 14.0949 30.0722 15.2136 30.3388 15.7627C30.6055 16.3322 31.2824 17.2678 31.8363 17.878C32.5132 18.6305 33.2927 19.1797 34.3388 19.7085C35.8157 20.4 35.9593 20.4407 38.0516 20.4407C40.0619 20.4407 40.308 20.4 41.5388 19.8102C42.2772 19.4441 43.3644 18.6915 43.9388 18.122C44.5747 17.5119 45.2721 16.5559 45.6413 15.8237C45.9695 15.1119 46.3593 13.9525 46.4823 13.2203C46.6464 12.2441 46.6464 11.5729 46.4823 10.678C46.3593 10.0068 45.9695 8.88813 45.6413 8.19661C45.2926 7.48475 44.5952 6.4678 44.0413 5.93898C43.508 5.38983 42.4618 4.65763 41.6413 4.27119C40.3901 3.66102 39.9798 3.55932 38.3593 3.49831C36.9849 3.45763 36.2465 3.53898 35.4875 3.80339C34.9132 4.00678 34.0516 4.41356 33.5388 4.69831Z" fill="#E84F13"/>
<path id="square" fill-rule="evenodd" clip-rule="evenodd" d="M78.0514 1.01709H100V22.7798H78.0514V1.01709ZM81.3334 19.5256H96.9231V4.27133H81.3334V19.5256Z" fill="#D591BD"/>
<path id="X" d="M63.0771 9.66089C56.472 3.11174 54.5233 1.22021 54.4618 1.22021C54.4002 1.22021 53.8464 1.70835 53.231 2.29818C52.6156 2.88801 52.1438 3.4575 52.1643 3.5592C52.1849 3.68123 54.0925 5.63377 56.4105 7.93208L60.6156 12.1016C54.2566 18.4067 52.4105 20.3185 52.4105 20.4406C52.431 20.5626 52.8413 21.1321 53.3336 21.7016C53.8464 22.2914 54.3797 22.7795 54.5028 22.7795C54.6464 22.7795 56.6361 20.9287 58.913 18.6507L63.0771 14.5422C69.5181 20.9287 71.4668 22.7795 71.5899 22.7795C71.713 22.7795 72.3078 22.2711 72.9232 21.6609L74.0514 20.5422L65.5386 12.1016L74.1335 3.5592C72.4719 1.83038 71.9181 1.28123 71.795 1.24055C71.6925 1.22021 69.6822 3.0914 67.3438 5.41005L63.0771 9.66089Z" fill="#A1A9D5"/>
</g>
</svg>
