<svg width="74" height="100" viewBox="0 0 74 100" fill="none" xmlns="http://www.w3.org/2000/svg">
<g id="Group 5242">
<g id="Group 283">
<g id="Vector 17">
<path d="M16.605 22.4993L16.8839 87.7119C16.8163 88.543 16.9621 88.9331 17.6957 89.4341L19.2113 89.6893L19.6849 87.8342C19.9037 87.1668 20.243 87.1578 21.0795 87.5316L27.0684 90.9048C27.5364 91.1923 27.8584 91.3105 28.5051 91.4691L42.122 92.3109C42.796 92.3072 43.1358 92.2406 43.6561 91.978C43.9089 91.7901 43.971 91.6299 43.9442 91.24C43.9579 91.0234 43.9504 90.8522 43.9113 90.4624L42.7204 80.9371C42.3078 77.2958 41.9238 73.8814 41.5582 70.63C39.3563 51.0494 37.8191 37.3793 34.6871 15.655L33.6917 10.3951L32.6963 5.13514C32.5365 4.46407 32.3204 4.18958 31.6964 3.89187C30.9456 3.73501 30.5495 3.82761 29.8834 4.28529C23.2307 9.23607 19.9886 12.4742 17.122 18.1524C16.6184 19.1498 16.5607 20.3979 16.605 22.4993Z" fill="#ECEFF8"/>
<path d="M47.4398 90.5728C48.4434 90.9694 48.9093 91.2452 49.4765 91.8831L50.871 91.5805L50.8234 85.3045L50.6993 68.9839L50.5531 49.7404L50.2352 7.90027C50.1234 6.66502 49.0261 6.31902 47.8407 6.95963L40.6547 10.8554C43.221 11.4182 44.2051 12.0973 44.8793 14.1734C44.9174 14.2905 44.9554 14.4072 44.9932 14.5236C45.8107 17.0347 46.5831 19.4076 46.6951 22.5408L47.223 37.7589L48.9317 89.3729C48.4818 90.0392 48.1638 90.3153 47.4398 90.5728Z" fill="#ECEFF8"/>
<path d="M50.871 91.5805L53.5207 91.0055C54.4705 90.7858 54.7278 90.4795 54.6732 89.5872C54.6252 81.8694 54.2462 77.5572 53.3164 69.8763L50.5531 49.7404L50.6993 68.9839L51.8981 68.7238L52.2984 84.6997L50.8234 85.3045L50.871 91.5805Z" fill="#ECEFF8"/>
</g>
<g id="Vector 16">
<path fill-rule="evenodd" clip-rule="evenodd" d="M40.6547 10.8554L33.6917 10.3951L34.6871 15.655C37.8191 37.3793 39.3563 51.0494 41.5582 70.63C41.9238 73.8814 42.3078 77.2958 42.7204 80.9371L43.9113 90.4624C43.9504 90.8522 43.9579 91.0234 43.9442 91.24C43.971 91.6299 43.9089 91.7901 43.6561 91.978C43.1358 92.2406 42.796 92.3072 42.122 92.3109L28.5051 91.4691C27.8584 91.3105 27.5364 91.1923 27.0684 90.9048L21.0795 87.5316C20.243 87.1578 19.9037 87.1668 19.6849 87.8342L19.2113 89.6893L18.422 92.781C18.159 94.1416 18.3145 94.4816 18.8457 94.7335L24.5688 95.5359C32.2077 95.3666 36.4991 95.1141 44.1705 94.3488C45.3983 94.1741 46.0971 94.0353 47.378 93.6527C48.4139 93.0731 48.9179 92.7086 49.4765 91.8831C48.9093 91.2452 48.4434 90.9694 47.4398 90.5728C48.1638 90.3153 48.4818 90.0392 48.9317 89.3729L47.223 37.7589L46.6951 22.5408C46.5831 19.4076 45.8107 17.0347 44.9932 14.5236C44.9554 14.4072 44.9174 14.2905 44.8793 14.1734C44.2051 12.0973 43.221 11.4182 40.6547 10.8554ZM50.8234 85.3045L52.2984 84.6997L51.8981 68.7238L50.6993 68.9839L50.8234 85.3045Z" fill="#262930"/>
<path d="M49.4765 91.8831C48.9179 92.7086 48.4139 93.0731 47.378 93.6527C46.0971 94.0353 45.3983 94.1741 44.1705 94.3488C36.4991 95.1141 32.2077 95.3666 24.5688 95.5359L18.8457 94.7335C18.3145 94.4816 18.159 94.1416 18.422 92.781L19.2113 89.6893M49.4765 91.8831C48.9093 91.2452 48.4434 90.9694 47.4398 90.5728M49.4765 91.8831L50.871 91.5805M47.4398 90.5728C47.4398 90.5728 44.2533 91.319 43.9442 91.24M47.4398 90.5728C48.1638 90.3153 48.4818 90.0392 48.9317 89.3729L47.223 37.7589L46.6951 22.5408C46.5831 19.4076 45.8107 17.0347 44.9932 14.5236C44.9554 14.4072 44.9174 14.2905 44.8793 14.1734C44.2051 12.0973 43.221 11.4182 40.6547 10.8554M43.9442 91.24C43.9579 91.0234 43.9504 90.8522 43.9113 90.4624L42.7204 80.9371C42.3078 77.2958 41.9238 73.8814 41.5582 70.63C39.3563 51.0494 37.8191 37.3793 34.6871 15.655L33.6917 10.3951M43.9442 91.24C43.971 91.6299 43.9089 91.7901 43.6561 91.978C43.1358 92.2406 42.796 92.3072 42.122 92.3109L28.5051 91.4691C27.8584 91.3105 27.5364 91.1923 27.0684 90.9048L21.0795 87.5316C20.243 87.1578 19.9037 87.1668 19.6849 87.8342L19.2113 89.6893M19.2113 89.6893L17.6957 89.4341C16.9621 88.9331 16.8163 88.543 16.8839 87.7119L16.605 22.4993C16.5607 20.3979 16.6184 19.1498 17.122 18.1524C19.9886 12.4742 23.2307 9.23607 29.8834 4.28529C30.5495 3.82761 30.9456 3.73501 31.6964 3.89187C32.3204 4.18958 32.5365 4.46407 32.6963 5.13514L33.6917 10.3951M40.6547 10.8554L33.6917 10.3951M40.6547 10.8554L47.8407 6.95963C49.0261 6.31902 50.1234 6.66502 50.2352 7.90027L50.5531 49.7404M50.871 91.5805L53.5207 91.0055C54.4705 90.7858 54.7278 90.4795 54.6732 89.5872C54.6252 81.8694 54.2462 77.5572 53.3164 69.8763L50.5531 49.7404M50.871 91.5805L50.8234 85.3045M50.5531 49.7404L50.6993 68.9839M50.8234 85.3045L52.2984 84.6997L51.8981 68.7238L50.6993 68.9839M50.8234 85.3045L50.6993 68.9839" stroke="#0F1117" stroke-width="0.334829"/>
</g>
<g id="Group 1">
<g id="Rectangle 13">
<mask id="path-4-inside-1_249_61" fill="white">
<rect x="43.455" y="51.3354" width="2.28326" height="5.70814" rx="0.285407" transform="rotate(-2.2435 43.455 51.3354)"/>
</mask>
<rect x="43.455" y="51.3354" width="2.28326" height="5.70814" rx="0.285407" transform="rotate(-2.2435 43.455 51.3354)" fill="#ECEFF8" stroke="#0F1117" stroke-width="0.669658" stroke-linejoin="round" mask="url(#path-4-inside-1_249_61)"/>
</g>
<rect id="Rectangle 14" x="44.0475" y="51.8833" width="1.14163" height="4.56651" rx="0.285407" transform="rotate(-2.24349 44.0475 51.8833)" fill="#262930"/>
</g>
<g id="Group 2">
<rect id="Rectangle 15" x="44.1324" y="59.0737" width="1.34575" height="3.36437" rx="0.672874" transform="rotate(-2.2435 44.1324 59.0737)" fill="#ECEFF8" stroke="#0F1117" stroke-width="0.334829" stroke-linejoin="round"/>
<rect id="Rectangle 16" x="44.4819" y="59.397" width="0.672874" height="2.6915" rx="0.336437" transform="rotate(-2.24349 44.4819 59.397)" fill="#262930"/>
</g>
<rect id="Rectangle 15_2" x="45.466" y="73.0908" width="0.68546" height="2.34802" rx="0.34273" transform="rotate(-0.243495 45.466 73.0908)" fill="#ECEFF8"/>
<rect id="Rectangle 16_2" x="45.4653" y="76.6006" width="0.68546" height="3.85635" rx="0.34273" transform="rotate(-0.243495 45.4653 76.6006)" fill="#ECEFF8"/>
</g>
<g id="Group 282">
<g id="Vector 15">
<path d="M41.3589 70.6601C38.4327 73.4267 37.3021 80.8575 37.1026 84.2271C36.9031 88.6829 38.3993 90.6307 39.6497 91.4096C40.5168 91.6756 41.1505 90.279 41.3589 89.5474C42.0904 87.3001 44.2851 82.8305 45.2162 80.7023C45.961 78.9998 47.5438 76.5568 48.2754 75.5149C48.4749 75.0494 48.3862 74.5395 48.3419 74.2514L47.6103 70.6601C47.4507 69.7556 46.5684 69.333 46.1472 69.2348C43.0198 69.6663 41.6625 70.2772 41.3589 70.6601Z" fill="#ECEFF8"/>
<path d="M72.9486 84.2271C72.8422 77.3638 70.2441 72.3227 68.9584 70.6601C68.8778 70.555 68.7658 70.4553 68.6258 70.3607C67.8268 69.8211 66.1139 69.4486 64.1035 69.1975C63.6158 69.2638 62.7069 69.596 62.5739 70.3276L61.7758 74.1183C61.7093 74.5617 61.7758 75.4758 62.1749 76.047C63.3055 77.6653 65.8725 81.7398 67.0962 85.0916C68.3199 88.4435 68.8016 89.367 68.9584 89.6805C69.1579 90.0795 69.8026 91.4628 70.6392 91.1436C72.5952 89.6604 73.0202 86.1411 72.9486 84.2271Z" fill="#ECEFF8"/>
</g>
<path id="Vector 8" d="M42.7041 73.5593L43.2162 74.0714C43.3649 74.2036 43.5135 74.2036 43.6622 74.0714L44.1744 73.5593C44.257 73.4767 44.2735 73.4437 44.29 73.328L44.3396 72.4029C44.3561 72.1386 44.1083 71.9403 43.8109 71.9238H43.0035C42.7392 71.9238 42.5244 72.1386 42.5409 72.4029L42.5884 73.328C42.6049 73.4437 42.6332 73.4819 42.7041 73.5593Z" fill="#E1E7F2" stroke="#0F1117" stroke-width="0.266019"/>
<g id="Vector 1">
<path d="M67.4107 90.8111C67.7831 91.7156 68.5413 91.8087 68.8738 91.7422C69.5312 91.6703 70.0867 91.432 70.5547 91.0772C69.7181 91.3964 69.0733 90.0131 68.8738 89.6141C68.7171 89.3005 68.2354 88.3771 67.0117 85.0252C65.788 81.6734 63.2209 77.5989 62.0903 75.9806C61.6913 75.4094 61.6248 74.4953 61.6913 74.0519L62.4893 70.2612C62.6224 69.5296 63.5313 69.1974 64.019 69.1311C63.8654 69.1119 63.7102 69.0934 63.5534 69.0757C60.6597 68.7473 57.2682 68.6533 55.1073 68.665C51.1265 68.665 48.1865 68.8754 46.0627 69.1684C46.4839 69.2666 47.3662 69.6892 47.5258 70.5937L48.2573 74.1849C48.3017 74.4731 48.3903 74.983 48.1908 75.4485C47.4593 76.4904 45.8765 78.9334 45.1316 80.6359C44.2005 82.7641 42.0059 87.2337 41.2743 89.481C41.0659 90.2126 40.4323 91.6092 39.5651 91.3432C40.1887 91.7317 40.8096 91.8825 41.2743 91.8087C41.985 91.6959 42.4448 91.4762 42.6044 90.8111C43.5621 86.8209 46.107 84.2272 47.2598 83.4291H62.6224L62.8884 83.4853C64.9108 84.4169 66.7382 88.7285 67.4107 90.8111Z" fill="#262930"/>
<path d="M41.2743 70.5937C41.578 70.2108 42.9353 69.5999 46.0627 69.1684V68.665C46.0627 68.2926 45.575 68.1108 45.3311 68.0665H44.5996C42.5778 68.0665 41.5403 68.8011 41.2743 69.1684V70.5937Z" fill="#262930"/>
<path d="M63.5534 69.0757C63.7102 69.0934 63.8654 69.1119 64.019 69.1311C66.0293 69.3822 67.7423 69.7547 68.5413 70.2943V69.1971C68.0092 68.2926 66.5461 68.0222 65.8811 68H64.7505C63.7928 68 63.5534 68.399 63.5534 68.5985V69.0757Z" fill="#262930"/>
<path d="M41.2743 70.5937C38.3481 73.3603 37.2175 80.7911 37.018 84.1607C36.8185 88.6165 38.3148 90.5643 39.5651 91.3432M41.2743 70.5937C41.578 70.2108 42.9353 69.5999 46.0627 69.1684M41.2743 70.5937V69.1684C41.5403 68.8011 42.5778 68.0665 44.5996 68.0665H45.3311C45.575 68.1108 46.0627 68.2926 46.0627 68.665V69.1684M46.0627 69.1684C48.1865 68.8754 51.1265 68.665 55.1073 68.665C57.2682 68.6533 60.6597 68.7473 63.5534 69.0757M46.0627 69.1684C46.4839 69.2666 47.3662 69.6892 47.5258 70.5937L48.2573 74.1849C48.3017 74.4731 48.3903 74.983 48.1908 75.4485C47.4593 76.4904 45.8765 78.9334 45.1316 80.6359C44.2005 82.7641 42.0059 87.2337 41.2743 89.481C41.0659 90.2126 40.4323 91.6092 39.5651 91.3432M39.5651 91.3432C40.1887 91.7317 40.8096 91.8825 41.2743 91.8087C41.985 91.6959 42.4448 91.4762 42.6044 90.8111C43.5621 86.8209 46.107 84.2272 47.2598 83.4291H62.6224L62.8884 83.4853C64.9108 84.4169 66.7382 88.7285 67.4107 90.8111C67.7831 91.7156 68.5413 91.8087 68.8738 91.7422C69.5312 91.6703 70.0867 91.432 70.5547 91.0772M64.019 69.1311C63.5313 69.1974 62.6224 69.5296 62.4893 70.2612L61.6913 74.0519C61.6248 74.4953 61.6913 75.4094 62.0903 75.9806C63.2209 77.5989 65.788 81.6734 67.0117 85.0252C68.2354 88.3771 68.7171 89.3005 68.8738 89.6141C69.0733 90.0131 69.7181 91.3964 70.5547 91.0772M64.019 69.1311C63.8654 69.1119 63.7102 69.0934 63.5534 69.0757M64.019 69.1311C66.0293 69.3822 67.7423 69.7547 68.5413 70.2943M70.5547 91.0772C72.5106 89.594 72.9356 86.0747 72.8641 84.1607C72.7577 77.2974 70.1596 72.2563 68.8738 70.5937C68.7932 70.4886 68.6813 70.3889 68.5413 70.2943M63.5534 69.0757V68.5985C63.5534 68.399 63.7928 68 64.7505 68H65.8811C66.5461 68.0222 68.0092 68.2926 68.5413 69.1971V70.2943" stroke="#0F1117" stroke-width="0.399029"/>
</g>
<path id="Vector 13" d="M61.6856 69.2635C61.8106 69.5372 61.7205 69.4981 61.7517 69.7955C61.7733 70.0444 61.7744 70.1894 61.7517 70.4606L60.428 75.7809L61.487 73.9853L62.2151 70.7266C62.4136 69.7955 62.4136 69.596 62.1489 69.463L61.7517 69.2635L61.5532 69.064L61.6856 69.2635Z" fill="url(#paint0_linear_249_61)"/>
<path id="Vector 14" d="M48.2635 69.3319C48.1385 69.6083 48.2285 69.5688 48.1973 69.8692C48.1758 70.1206 48.1747 70.267 48.1973 70.5408L49.5211 75.9139L48.4621 74.1005L47.734 70.8095C47.5355 69.8692 47.5355 69.6677 47.8002 69.5334L48.1973 69.3319L48.3959 69.1304L48.2635 69.3319Z" fill="url(#paint1_linear_249_61)"/>
<path id="Vector 7" d="M61.359 68.9311C56.677 68.3458 51.1616 68.6872 48.9891 68.9311C48.191 69.0086 48.2575 70.2048 48.3905 70.7932L49.2551 74.9165C49.5211 76.0338 50.297 76.3131 50.6517 76.3131H59.5633C60.0289 76.3131 60.5609 75.9141 60.7604 74.9165L61.6915 70.7932C61.9575 69.4631 61.5806 68.9976 61.359 68.9311Z" fill="#ECEFF8" stroke="black" stroke-width="0.399029"/>
<path id="Vector 3" d="M43.8016 72.855H43.1365L43.469 72.5225L43.8016 72.855Z" fill="#BAC0CC"/>
<path id="Vector 10" d="M44.1742 75.594L43.6621 75.0819C43.5134 74.9497 43.3647 74.9497 43.216 75.0819L42.7039 75.594C42.6213 75.6766 42.6048 75.7096 42.5883 75.8253L42.5387 76.7504C42.5222 77.0147 42.77 77.213 43.0673 77.2295H43.8748C44.1391 77.2295 44.3538 77.0147 44.3373 76.7504L44.2898 75.8253C44.2733 75.7096 44.2451 75.6715 44.1742 75.594Z" stroke="#0F1117" stroke-width="0.266019"/>
<path id="Vector 11" d="M43.0767 76.2988H43.7417L43.4092 76.6313L43.0767 76.2988Z" fill="#BAC0CC"/>
<path id="Vector 10_2" d="M42.1782 75.2891L42.6904 74.777C42.8225 74.6283 42.8225 74.4796 42.6904 74.3309L42.1782 73.8188C42.0956 73.7362 42.0626 73.7197 41.947 73.7032L41.0218 73.6536C40.7575 73.6371 40.5593 73.8849 40.5428 74.1823V74.9897C40.5428 75.254 40.7575 75.4688 41.0218 75.4522L41.947 75.4047C42.0626 75.3882 42.1008 75.36 42.1782 75.2891Z" stroke="#0F1117" stroke-width="0.266019"/>
<path id="Vector 11_2" d="M41.4736 74.1914V74.8564L41.1411 74.5239L41.4736 74.1914Z" fill="#BAC0CC"/>
<path id="Vector 10_3" d="M44.6122 73.8169L44.1001 74.329C43.968 74.4777 43.968 74.6263 44.1001 74.775L44.6122 75.2871C44.6948 75.3697 44.7279 75.3863 44.8435 75.4028L45.7687 75.4523C46.033 75.4689 46.2312 75.2211 46.2477 74.9237V74.1163C46.2477 73.852 46.033 73.6372 45.7687 73.6537L44.8435 73.7012C44.7279 73.7177 44.6897 73.746 44.6122 73.8169Z" stroke="#0F1117" stroke-width="0.266019"/>
<path id="Vector 11_3" d="M45.3169 74.9146V74.2495L45.6494 74.582L45.3169 74.9146Z" fill="#BAC0CC"/>
<circle id="Ellipse 2" cx="49.4545" cy="80.1702" r="2.52718" fill="#4A4F59" stroke="#131313" stroke-width="0.399029"/>
<circle id="Ellipse 3" cx="49.4543" cy="80.1702" r="1.72912" fill="#666A73" stroke="black" stroke-width="0.266019"/>
<circle id="Ellipse 5" cx="49.4546" cy="80.1705" r="1.06408" fill="#1A1D24"/>
<circle id="Ellipse 23" cx="60.4944" cy="80.1702" r="2.52718" fill="#4A4F59" stroke="#131313" stroke-width="0.399029"/>
<circle id="Ellipse 24" cx="60.4942" cy="80.1702" r="1.72912" fill="#666A73" stroke="black" stroke-width="0.266019"/>
<circle id="Ellipse 25" cx="60.4941" cy="80.1705" r="1.06408" fill="#1A1D24"/>
<circle id="Ellipse 6" cx="53.3784" cy="77.4434" r="0.266019" fill="#4A4F59" stroke="#0F1117" stroke-width="0.13301"/>
<circle id="Ellipse 7" cx="54.4424" cy="77.4434" r="0.266019" fill="#4A4F59" stroke="#0F1117" stroke-width="0.13301"/>
<circle id="Ellipse 8" cx="55.6395" cy="77.4434" r="0.266019" fill="#4A4F59" stroke="#0F1117" stroke-width="0.13301"/>
<circle id="Ellipse 9" cx="56.7035" cy="77.4434" r="0.266019" fill="#4A4F59" stroke="#0F1117" stroke-width="0.13301"/>
<circle id="Ellipse 10" cx="53.9102" cy="78.2417" r="0.266019" fill="#4A4F59" stroke="#0F1117" stroke-width="0.13301"/>
<circle id="Ellipse 11" cx="55.1072" cy="78.2417" r="0.266019" fill="#4A4F59" stroke="#0F1117" stroke-width="0.13301"/>
<circle id="Ellipse 12" cx="56.1713" cy="78.2417" r="0.266019" fill="#4A4F59" stroke="#0F1117" stroke-width="0.13301"/>
<rect id="Rectangle 1" x="53.9103" y="81.6998" width="2.12815" height="0.399029" rx="0.199514" stroke="black" stroke-width="0.13301"/>
<rect id="Rectangle 3" x="46.7647" y="70.4604" width="1.79392" height="0.779294" rx="0.389647" transform="rotate(80.4426 46.7647 70.4604)" stroke="#0F1117" stroke-width="0.266019"/>
<rect id="Rectangle 4" x="63.997" y="70.4771" width="1.79392" height="0.778271" rx="0.389136" transform="rotate(101.083 63.997 70.4771)" stroke="#0F1117" stroke-width="0.266019"/>
<circle id="Ellipse 18" cx="63.9523" cy="74.8497" r="0.931067" stroke="#0F1117" stroke-width="0.266019"/>
<circle id="Ellipse 19" cx="66.2138" cy="72.589" r="0.931067" stroke="#0F1117" stroke-width="0.266019"/>
<circle id="Ellipse 20" cx="68.475" cy="74.8497" r="0.931067" stroke="#0F1117" stroke-width="0.266019"/>
<circle id="Ellipse 21" cx="66.2138" cy="77.111" r="0.931067" stroke="#0F1117" stroke-width="0.266019"/>
<rect id="Rectangle 2" x="63.62" y="74.5172" width="0.665048" height="0.665048" stroke="#9CA2AD" stroke-width="0.13301"/>
<path id="Vector 6" d="M65.8146 76.7119L66.2136 77.1109M66.6127 77.51L66.2136 77.1109M66.2136 77.1109L66.6127 76.7119L65.8146 77.51" stroke="#9CA2AD" stroke-width="0.13301"/>
<path id="Polygon 1" d="M65.868 72.7882L66.2136 72.1897L66.5592 72.7882H65.868Z" stroke="#9CA2AD" stroke-width="0.13301"/>
<circle id="Ellipse 22" cx="68.4747" cy="74.8499" r="0.465533" stroke="#9CA2AD" stroke-width="0.13301"/>
<g id="Vector 9">
<path d="M54.6154 80.2107L53.9281 80.4956C53.8606 80.5344 53.8399 80.5596 53.8443 80.6129C53.8639 80.6765 53.8605 80.6968 53.9281 80.7303L54.2634 80.8308C54.4304 80.8811 54.5118 80.8481 54.6154 80.8141V80.5627L54.3639 80.68C54.3063 80.7036 54.2762 80.7071 54.2298 80.68C54.21 80.6684 54.2125 80.6465 54.2298 80.6297L54.6154 80.4453V80.2107Z" fill="#666A73"/>
<path d="M55.3633 80.3732C55.3301 80.3871 55.2884 80.395 55.2518 80.395C55.242 80.395 55.233 80.3947 55.2246 80.3939C55.1501 80.407 55.0669 80.4241 54.9674 80.4453V80.6632L55.487 80.4956C55.5103 80.4898 55.5199 80.4788 55.554 80.4956C55.587 80.5124 55.587 80.5459 55.554 80.5627L54.9674 80.7638V81.0152L55.8725 80.68C55.9725 80.6465 56.006 80.4956 55.7881 80.4118C55.7115 80.383 55.6707 80.3702 55.6043 80.3615C55.52 80.3597 55.4443 80.3635 55.3633 80.3732Z" fill="#666A73"/>
<path d="M55.4199 79.7078C55.2724 79.5067 54.8221 79.4005 54.6154 79.3726V80.2107V80.4453V80.5627V80.8141V80.8644L54.9674 81.0152V80.7638V80.6632V80.4453V79.7916C54.9703 79.735 54.9842 79.7124 55.0344 79.691C55.0886 79.7135 55.1019 79.7364 55.1015 79.7916V80.2609C55.1017 80.2914 55.1051 80.3081 55.1182 80.328C55.1464 80.371 55.1747 80.3895 55.2246 80.3939C55.2739 80.3853 55.3193 80.3784 55.3633 80.3732C55.3902 80.3618 55.4116 80.3464 55.4199 80.328C55.4814 80.2051 55.5674 79.9089 55.4199 79.7078Z" fill="#666A73"/>
<path d="M54.9674 81.0152L54.6154 80.8644V80.8141M54.9674 81.0152L55.8725 80.68C55.9725 80.6465 56.006 80.4956 55.7881 80.4118C55.7115 80.383 55.6707 80.3702 55.6043 80.3615C55.52 80.3597 55.4443 80.3635 55.3633 80.3732M54.9674 81.0152V80.7638M54.9674 80.4453V79.7916C54.9703 79.735 54.9842 79.7124 55.0344 79.691C55.0886 79.7135 55.1019 79.7364 55.1015 79.7916V80.2609C55.1017 80.2914 55.1051 80.3081 55.1182 80.328C55.1464 80.371 55.1747 80.3895 55.2246 80.3939M54.9674 80.4453V80.6632M54.9674 80.4453C55.0669 80.4241 55.1501 80.407 55.2246 80.3939M54.6154 80.2107V79.3726C54.8221 79.4005 55.2724 79.5067 55.4199 79.7078C55.5674 79.9089 55.4814 80.2051 55.4199 80.328C55.4116 80.3464 55.3902 80.3618 55.3633 80.3732M54.6154 80.2107L53.9281 80.4956C53.8606 80.5344 53.8399 80.5596 53.8443 80.6129C53.8639 80.6765 53.8605 80.6968 53.9281 80.7303L54.2634 80.8308C54.4304 80.8811 54.5118 80.8481 54.6154 80.8141M54.6154 80.2107V80.4453M54.6154 80.8141V80.5627M54.9674 80.7638L55.554 80.5627C55.587 80.5459 55.587 80.5124 55.554 80.4956C55.5199 80.4788 55.5103 80.4898 55.487 80.4956L54.9674 80.6632M54.9674 80.7638V80.6632M54.6154 80.4453L54.2298 80.6297C54.2125 80.6465 54.21 80.6684 54.2298 80.68C54.2762 80.7071 54.3063 80.7036 54.3639 80.68L54.6154 80.5627M54.6154 80.4453V80.5627M55.3633 80.3732C55.3301 80.3871 55.2884 80.395 55.2518 80.395C55.242 80.395 55.233 80.3947 55.2246 80.3939M55.3633 80.3732C55.3193 80.3784 55.2739 80.3853 55.2246 80.3939" stroke="#0F1117" stroke-width="0.0665048"/>
</g>
</g>
</g>
<defs>
<linearGradient id="paint0_linear_249_61" x1="62.3474" y1="69.2635" x2="61.2787" y2="74.3158" gradientUnits="userSpaceOnUse">
<stop stop-color="#3B66F0"/>
<stop offset="1" stop-color="#608CF5" stop-opacity="0"/>
</linearGradient>
<linearGradient id="paint1_linear_249_61" x1="47.6016" y1="69.3319" x2="48.6907" y2="74.4299" gradientUnits="userSpaceOnUse">
<stop stop-color="#3B66F0"/>
<stop offset="1" stop-color="#608CF5" stop-opacity="0"/>
</linearGradient>
</defs>
</svg>
